<svg xmlns="http://www.w3.org/2000/svg" width="89.724" height="64.895" viewBox="0 0 89.724 64.895">
  <path id="Icon_awesome-eye" data-name="Icon awesome-eye" d="M85.3,31.781C77.216,15.509,61.221,4.5,42.907,4.5S8.593,15.517.518,31.782a5.118,5.118,0,0,0,0,4.489C8.6,52.543,24.592,63.552,42.907,63.552S77.22,52.535,85.3,36.27A5.118,5.118,0,0,0,85.3,31.781ZM42.907,56.171c-11.848,0-21.453-9.914-21.453-22.145s9.605-22.145,21.453-22.145S64.36,21.8,64.36,34.026,54.758,56.177,42.907,56.171Zm0-36.908a13.79,13.79,0,0,0-3.771.583,7.536,7.536,0,0,1-.7,9.564,6.964,6.964,0,0,1-9.266.724,14.966,14.966,0,0,0,5.822,16.09,13.91,13.91,0,0,0,16.631-.542,15.013,15.013,0,0,0,4.826-16.437,14.311,14.311,0,0,0-13.541-9.981Z" transform="matrix(0.998, 0.07, -0.07, 0.998, 4.433, -4.489)"/>
</svg>
